<svg xmlns="http://www.w3.org/2000/svg" fill="none" viewBox="0 0 243 66" height="66" width="243">
<g clip-path="url(#clip0_75_660)">
<path fill="black" d="M43.5686 61.6105C43.1048 63.675 43.041 63.8828 42.5705 63.8828H37.2827V64.2869H49.2591V63.8828H43.7772C43.4227 63.8828 43.482 63.6028 43.9131 61.716L47.5969 45.813H62.1797L66.6319 63.8828H60.7078V64.2869H80.636V63.8828H74.4407L57.9144 0.160156H57.814L43.5686 61.6105ZM54.6473 15.3556L62.0665 45.4109H47.7012L54.6473 15.3556ZM215.211 32.4934H219.77C223.809 32.4934 229.765 34.4271 229.765 42.2842V56.5124C229.765 62.3346 232.655 66.001 237.753 66.001C243.111 66.001 243.028 59.9858 243.028 55.6464V51.0733H242.666V55.6464C242.666 60.5822 242.14 64.8685 239.526 64.8685C237.21 64.8685 236.711 63.2716 236.711 56.5747V42.2842C236.711 35.6719 231.891 33.2484 224.446 32.2892C233.718 31.063 237.21 24.4796 237.21 17.1999C237.21 6.43201 232.737 1.90576 221.22 1.90576L202.962 1.90145V2.30608H207.756C208.102 2.30608 208.266 2.41403 208.266 2.63238V63.5541C208.266 63.7737 208.102 63.8828 207.756 63.8828H202.962V64.2869H219.752V63.8828H215.719C215.372 63.8828 215.211 63.7737 215.211 63.5541V32.4934ZM215.211 2.30978H220.132C227.713 2.30978 229.856 8.7198 229.856 17.1999C229.856 25.1396 227.713 32.0894 220.132 32.0894H215.211V2.30978ZM93.0279 63.5646C92.9686 63.7095 93.0357 63.8828 93.3159 63.8828L106.397 63.8865C110.425 63.8865 115.623 57.2643 115.623 35.9254V33.7036H115.987V64.2893H84.7532L108.416 2.62128C108.473 2.47818 108.406 2.30608 108.126 2.30608L94.2374 2.30978C90.5918 2.30978 85.298 9.70918 85.298 30.2722V32.4934H84.9346V1.90576H116.714L93.0279 63.5646ZM15.6985 2.30978C23.2803 2.30978 26.3672 8.7198 26.3672 17.1999C26.3672 25.1396 23.2803 31.483 15.6985 31.483H12.2488V2.30978H15.6985ZM0 1.90145V2.30608H4.79453C5.14128 2.30608 5.30328 2.41403 5.30328 2.63238V63.5541C5.30328 63.7737 5.14128 63.8828 4.79453 63.8828H0V64.2869L17.8783 64.2893C29.3936 64.2893 35.5374 58.9563 35.5374 48.1915C35.5374 40.7366 31.9062 33.1491 20.4442 31.6378C30.1808 30.6256 33.5401 23.8264 33.5401 17.1999C33.5401 7.50898 28.3045 1.90576 16.7886 1.90576L0 1.90145ZM15.6985 31.887C24.2478 31.887 27.6388 38.3649 27.6388 48.1915C27.6388 56.6691 24.6118 63.8865 17.5143 63.8865L12.7575 63.8828C12.4108 63.8828 12.2488 63.7737 12.2488 63.5541V31.8821L15.6985 31.887ZM126.014 61.6105C125.548 63.675 125.484 63.8828 125.015 63.8828H119.727V64.2869H131.704V63.8828H126.221C125.868 63.8828 125.926 63.6028 126.359 61.716L130.042 45.813H144.624L149.078 63.8828H143.151V64.2869H163.081V63.8828H156.884L140.359 0.160156H140.257L126.014 61.6105ZM137.092 15.3556L144.51 45.4109H130.144L137.092 15.3556Z" clip-rule="evenodd" fill-rule="evenodd"></path>
<path fill="black" d="M165.794 61.6105C165.328 63.675 165.267 63.8828 164.797 63.8828H159.508V64.2869H171.485V63.8828H166.002C165.65 63.8828 165.708 63.6028 166.14 61.716L169.823 45.813H184.406L188.858 63.8828H182.933V64.2869H202.862V63.8828H196.667L180.141 0.160156H180.04L165.794 61.6105ZM176.874 15.3556L184.292 45.4109H169.926L176.874 15.3556ZM152.979 8.35834C152.979 8.38302 152.999 8.39227 153.038 8.39227H153.848V8.53599H151.084V8.39227H151.806C151.846 8.39227 151.864 8.38302 151.864 8.35834V5.24771H149.225V8.35834C149.225 8.38302 149.243 8.39227 149.283 8.39227H150.005V8.53599H147.242V8.39227H148.052C148.091 8.39227 148.109 8.38302 148.109 8.35834V2.25427C148.109 2.23206 148.091 2.22158 148.052 2.22158H147.242V2.07724H150.005V2.22158H149.283C149.243 2.22158 149.225 2.23206 149.225 2.25427V5.10522H151.864V2.25427C151.864 2.23206 151.846 2.22158 151.806 2.22158H151.084V2.07724H153.848V2.22158H153.038C152.999 2.22158 152.979 2.23206 152.979 2.25427V8.35834ZM160.652 5.70724C160.397 5.70724 160.227 5.57647 160.227 5.35627C160.227 5.15703 160.335 5.16382 160.335 5.01763C160.335 4.8696 160.249 4.80174 160.112 4.80174C159.971 4.80174 159.718 4.85418 159.527 5.5006V8.35834C159.527 8.38302 159.545 8.39227 159.585 8.39227H160.081V8.53599H158.136V8.39227H158.63C158.67 8.39227 158.688 8.38302 158.688 8.35834V4.83074C158.688 4.80915 158.67 4.79681 158.63 4.79681H158.136V4.65309H159.503L159.527 4.68085V5.28348C159.673 4.78139 159.988 4.57414 160.359 4.57414C160.81 4.57414 161.103 4.83752 161.103 5.24524C161.103 5.50245 160.924 5.70724 160.652 5.70724ZM167.947 8.61432C168.58 8.61432 169.089 8.27322 169.43 7.75077L169.331 7.66318C169.013 8.16343 168.587 8.47307 167.947 8.47307C167.713 8.47307 167.524 8.42373 167.363 8.26459C167.097 7.99874 167.013 7.68724 167.013 6.59546C167.013 6.51466 167.014 6.49246 167.016 6.41844H169.504L169.528 6.39315C169.528 5.65604 169.071 4.57414 167.947 4.57414C166.91 4.57414 166.13 5.48025 166.13 6.59546C166.13 7.70883 166.91 8.61432 167.947 8.61432ZM168.409 4.92696C168.6 5.16629 168.662 5.53638 168.677 6.27472H167.018C167.038 5.53638 167.122 5.16629 167.363 4.92696C167.524 4.7672 167.713 4.71786 167.947 4.71786C168.15 4.71786 168.281 4.7672 168.409 4.92696ZM155.567 8.43668C156.012 8.43668 156.301 8.08447 156.301 7.74769V6.40363C156.094 6.53625 155.794 6.53625 155.529 6.5893C155.231 6.64974 154.911 6.82307 154.911 7.65948C154.911 8.29789 155.287 8.43668 155.567 8.43668ZM154.523 5.36367C154.523 5.04107 154.888 4.57414 155.595 4.57414C156.629 4.57414 157.141 5.08117 157.141 6.21982V8.07214C157.141 8.28988 157.235 8.37993 157.372 8.37993C157.531 8.37993 157.66 8.23313 157.694 8.14431L157.779 8.23806C157.727 8.39967 157.461 8.61432 157.124 8.61432C156.741 8.61432 156.405 8.36821 156.345 8.02649C156.223 8.41571 155.888 8.61432 155.406 8.61432C154.607 8.61432 154.093 8.30468 154.093 7.65948C154.093 6.70711 155.008 6.48567 155.359 6.45421C155.855 6.40795 156.301 6.37156 156.301 6.17664V5.64556C156.301 4.99543 156.046 4.71786 155.595 4.71786C155.369 4.71786 155.228 4.83259 155.228 5.10152C155.228 5.25449 155.3 5.30137 155.3 5.45064C155.3 5.6178 155.181 5.77694 154.898 5.77694C154.629 5.77694 154.523 5.56969 154.523 5.36367ZM164.259 4.92264C164.108 4.7672 163.905 4.71786 163.687 4.71786C163.387 4.71786 163.11 4.93868 162.919 5.18788V7.90251C163.034 8.22573 163.369 8.47307 163.687 8.47307C163.905 8.47307 164.108 8.42496 164.259 8.26767C164.507 8.00675 164.674 7.55216 164.674 6.6189C164.674 5.68503 164.507 5.18294 164.259 4.92264ZM165.528 6.6189C165.528 7.62741 164.757 8.61432 163.687 8.61432C163.36 8.61432 163.11 8.38733 162.919 8.16774V11.176C162.919 11.197 162.939 11.2074 162.978 11.2074H163.472V11.3512H161.529V11.2074H162.022C162.062 11.2074 162.08 11.197 162.08 11.176V4.83074C162.08 4.80915 162.062 4.79681 162.022 4.79681H161.529V4.65309H162.895L162.919 4.68085V5.02689C163.11 4.80545 163.36 4.57414 163.687 4.57414C164.757 4.57414 165.528 5.60917 165.528 6.6189ZM176.138 4.6827C176.23 4.6827 176.281 4.64075 176.291 4.60128H176.431V5.56352H176.291C176.291 5.00406 175.84 4.71786 175.412 4.71786C174.97 4.71786 174.757 4.93868 174.757 5.28718C174.757 5.73561 175.046 5.96384 175.704 6.16862C176.392 6.38389 176.845 6.75769 176.845 7.3412C176.845 8.07954 176.309 8.61432 175.451 8.61432C174.941 8.61432 174.72 8.35032 174.456 8.35032C174.397 8.3481 174.339 8.36584 174.289 8.40121C174.24 8.43657 174.201 8.48788 174.178 8.54832H174.036L174.085 7.26842H174.227C174.203 7.93952 174.768 8.47307 175.451 8.47307C175.967 8.47307 176.259 8.21031 176.259 7.72117C176.259 7.23326 175.913 7.03896 175.283 6.82492C174.666 6.61767 174.236 6.33887 174.236 5.73561C174.236 5.02072 174.859 4.57414 175.412 4.57414C175.773 4.57414 175.807 4.6827 176.138 4.6827ZM173.574 3.33371C173.574 3.07341 173.772 2.86122 174.018 2.86122C174.283 2.86122 174.48 3.07588 174.48 3.39046C174.48 3.85492 174.103 4.40019 173.585 4.74623L173.503 4.6426C173.877 4.40204 174.146 4.10535 174.305 3.68406C174.236 3.76857 174.141 3.80743 174.018 3.80743C173.772 3.80743 173.574 3.59647 173.574 3.33371ZM172.451 5.70724C172.199 5.70724 172.027 5.57647 172.027 5.35627C172.027 5.15703 172.135 5.16382 172.135 5.01763C172.135 4.8696 172.049 4.80174 171.911 4.80174C171.77 4.80174 171.517 4.85418 171.327 5.5006V8.35834C171.327 8.38302 171.343 8.39227 171.383 8.39227H171.878V8.53599H169.933V8.39227H170.43C170.469 8.39227 170.488 8.38302 170.488 8.35834V4.83074C170.488 4.80915 170.469 4.79681 170.43 4.79681H169.933V4.65309H171.301L171.327 4.68085V5.28348C171.474 4.78139 171.787 4.57414 172.161 4.57414C172.607 4.57414 172.904 4.83752 172.904 5.24524C172.904 5.50245 172.722 5.70724 172.451 5.70724Z" clip-rule="evenodd" fill-rule="evenodd"></path>
</g>
<defs>
<clipPath id="clip0_75_660">
<rect fill="white" height="66" width="243"></rect>
</clipPath>
</defs>
</svg>
