<svg xmlns="http://www.w3.org/2000/svg" fill="none" viewBox="0 0 278 63" height="63" width="278">
<g clip-path="url(#clip0_75_650)">
<path fill="black" d="M64.2595 58.1878H54.702L54.751 0H42.5469V61.7724H54.9961H64.2595V58.1878Z"></path>
<path fill="black" d="M81.066 0L66.6562 61.7724H70.3322L76.5568 35.0109H88.81L93.9073 61.7724H106.062L92.3879 0H81.066ZM77.439 31.4754L83.3696 6.13796L88.1728 31.4754H77.439Z"></path>
<path fill="black" d="M141.205 0L131.353 42.5729L122.531 0H112.679L109.102 0.0491037V61.7724H112.679V8.54404L114.885 17.3336L124.835 61.7724H130.079H130.667L142.283 11.9813V61.7724H154.487V0H141.205Z"></path>
<path fill="black" d="M170.761 19.7397C170.761 19.7397 170.663 27.8418 170.663 31.0826C170.663 34.3235 170.761 42.0327 170.761 42.0327C170.761 51.1169 172.967 58.1878 179.093 58.1878C185.171 58.1878 187.425 51.1169 187.425 42.0327C187.425 42.0327 187.523 34.3235 187.523 31.0826C187.523 27.8418 187.425 19.7397 187.425 19.7397C187.425 10.6555 185.22 3.63367 179.093 3.63367C172.967 3.58457 170.761 10.6064 170.761 19.7397ZM199.678 30.8371C199.678 60.7903 182.377 61.7724 179.093 61.7724C175.809 61.7724 158.508 60.8885 158.508 30.8862C158.508 0.883868 175.76 0 179.044 0C182.377 0 199.678 0.834763 199.678 30.8371Z"></path>
<path fill="black" d="M225.269 57.5495C234.679 57.5495 233.895 40.6578 233.895 40.6578C233.895 36.0421 233.895 0.343726 233.895 0H237.473C237.473 0.343726 237.816 36.0421 237.816 40.6578C237.816 41.198 237.816 41.7381 237.816 42.2783C237.669 47.4832 236.983 53.5721 233.307 57.4022C233.062 57.6477 232.817 57.8932 232.523 58.1387C228.455 61.6742 221.985 62.1652 216.986 61.4287C211.937 60.643 207.232 57.8441 205.272 52.59C203.801 48.6126 203.703 44.2915 203.703 40.0686C203.703 40.0195 203.703 0 203.703 0H215.858V44.4879C215.858 44.537 215.858 44.5861 215.858 44.6352C215.907 44.6352 215.711 57.5495 225.269 57.5495Z"></path>
<path fill="black" d="M268.983 34.1259C270.747 33.3894 272.364 32.6528 273.639 31.1797C277.462 26.564 277.462 21.6045 277.462 17.2343C277.462 8.78845 273.443 2.99422 266.091 0.735453C265.993 0.686349 265.895 0.686349 265.748 0.637245C265.699 0.637245 265.699 0.637246 265.65 0.588142H265.601C265.503 0.539038 265.405 0.539038 265.307 0.489934C265.209 0.440831 265.111 0.440831 264.963 0.440831H264.914C264.816 0.440831 264.718 0.391727 264.571 0.391727C264.473 0.391727 264.375 0.342623 264.228 0.342623C264.179 0.342623 264.179 0.342623 264.13 0.342623C264.032 0.342623 263.885 0.29352 263.787 0.29352H263.738C263.64 0.29352 263.542 0.29352 263.444 0.244416H263.395C263.297 0.244416 263.199 0.244416 263.101 0.195312H263.052C262.954 0.195312 262.905 0.195312 262.807 0.195312H262.758C262.66 0.195312 262.562 0.195312 262.513 0.195312H262.464C262.366 0.195312 262.317 0.195312 262.268 0.195312H262.219C262.121 0.195312 262.072 0.195312 261.974 0.195312H261.925C261.876 0.195312 261.778 0.195312 261.729 0.195312C261.729 0.195312 261.729 0.195312 261.68 0.195312C261.631 0.195312 261.533 0.195312 261.484 0.195312H261.435C261.386 0.195312 261.337 0.195312 261.288 0.195312C261.239 0.195312 261.19 0.195312 261.19 0.195312C261.141 0.195312 261.141 0.195312 261.141 0.195312H254.083H241.977V61.9677H254.23V35.2062H257.269L265.111 61.8695L265.16 61.9677H278.05L268.983 34.1259ZM256.827 31.4252C256.582 31.4252 254.034 31.4252 254.034 31.4252C254.034 27.9389 254.034 3.73078 254.034 3.77988C255.063 3.77988 256.386 3.87809 257.416 4.0745C263.934 5.4003 266.336 12.0784 266.434 17.7253C266.483 20.6715 266.336 23.9124 265.209 26.7113C264.914 27.4969 264.375 28.1844 263.836 28.8719C263.297 29.5102 262.709 30.1976 261.974 30.5905C260.454 31.4252 258.543 31.4252 256.827 31.4252Z"></path>
<path fill="black" d="M34.0666 7.75838C35.635 10.1645 37.3505 15.615 37.3505 23.4715C34.3607 23.4715 29.2634 23.5207 26.6657 23.5207V22.8332C26.6657 20.3289 26.6167 19.8379 26.6167 19.8379C26.6167 10.6555 24.6072 3.73188 20.049 3.73188C14.3635 3.73188 12.305 10.6555 12.305 19.8379V37.908C12.305 40.4614 12.354 42.622 12.354 42.622C12.354 52.0008 14.7556 58.5807 20.5881 58.5807C26.4206 58.5807 28.2341 52.0008 28.2341 42.622L28.2831 42.1309C28.3321 39.9704 28.3811 38.2026 28.3321 34.9618C25.4894 34.9618 22.0585 34.9618 19.2158 34.9618C19.2158 34.127 19.2158 32.212 19.2158 31.3772C25.5384 31.3772 31.861 31.4263 38.1837 31.4263C38.1837 42.0327 38.1837 51.1169 38.1837 61.7233C35.7821 61.7233 32.9883 61.7233 30.6357 61.7233C30.5377 51.4606 30.7338 54.8979 30.5377 51.4606C29.9986 55.3398 28.0381 59.1699 24.7052 61.2323C21.1273 63.491 16.324 63.3928 12.501 61.576C8.67804 59.7592 5.73728 56.371 3.92381 52.6391C2.06133 48.809 1.1791 44.537 0.639963 40.3141C0.198849 36.7786 0.00279842 33.2432 0.149836 29.7077C0.345887 21.1637 2.20837 10.901 8.97212 4.86126C11.9129 1.86594 15.9319 0 20.2941 0C24.3621 0 28.0871 1.57132 30.9788 4.17381C30.9788 4.17381 31.0278 4.22291 31.0768 4.27202C32.1551 5.25409 33.1354 6.38348 34.0666 7.75838Z"></path>
</g>
<defs>
<clipPath id="clip0_75_650">
<rect fill="white" height="63" width="278"></rect>
</clipPath>
</defs>
</svg>
