<svg xmlns="http://www.w3.org/2000/svg" fill="none" viewBox="0 0 195 71" height="71" width="195">
<g clip-path="url(#clip0_75_648)">
<path fill="black" d="M15.0308 67.6363H12.4378V34.9923H13.5756C17.9941 34.9923 20.3225 39.7167 20.3225 46.9235H21.0633V21.7799H20.3225C20.3225 27.919 18.2587 34.1915 13.5756 34.1915H12.4378V2.77536H15.7716C20.984 2.77536 26.7255 7.01934 26.7255 18.3633H27.4663V1.89453H0.1875V2.77536H4.52671V67.6363H0.1875V68.5171H27.5986V51.1141H26.8578C26.8578 63.3923 20.64 67.6363 15.0308 67.6363ZM71.3083 67.6363H68.1068V2.77536H73.0545V1.89453H55.2743V2.77536H60.2221V67.5829H55.2743V68.4637H83.6115V50.9806H82.7384C82.5532 62.5114 77.7906 67.6363 71.3083 67.6363ZM129.941 67.6363H126.739V2.77536H131.687V1.89453H113.907V2.77536H118.854V67.5829H113.907V68.4637H142.244V50.9806H141.371C141.159 62.5114 136.423 67.6363 129.941 67.6363ZM194.367 51.1141V51.034C194.367 63.3122 188.15 67.5562 182.54 67.5562H179.921V34.9923H181.059C185.477 34.9923 187.806 39.7167 187.806 46.9235H188.546V21.7799H187.806C187.806 27.919 185.742 34.1915 181.059 34.1915H179.921V2.77536H183.255C188.546 2.77536 194.209 7.01934 194.209 18.3633H194.949V1.89453H167.697V2.77536H172.036V67.6363H167.697V68.5171H195.108V51.1141H194.367Z"></path>
</g>
<defs>
<clipPath id="clip0_75_648">
<rect fill="white" height="71" width="195"></rect>
</clipPath>
</defs>
</svg>
