<svg xmlns="http://www.w3.org/2000/svg" fill="none" viewBox="0 0 384 74" height="74" width="384">
<path fill="black" d="M19.7166 2.57031C10.1666 2.57031 2.5625 11.691 2.5625 37.0022C2.5625 58.7735 6.82818 71.4305 19.7166 71.4305C33.8114 71.4305 35.4795 57.4723 35.4795 45.9359L25.28 45.4681C25.0914 55.0541 24.1671 61.1915 20.1791 61.1915C16.4707 61.1915 15.1747 58.7747 15.1747 37.0033C15.1747 14.4827 17.6729 12.8057 20.1791 12.8057C23.1451 12.8057 24.535 16.9012 24.535 27.8842L35.29 27.5109C35.29 15.4145 33.6216 2.57031 19.7166 2.57031ZM53.9942 2.57152C43.3354 2.57152 36.3799 10.8545 36.3799 37.0034C36.3799 63.1486 43.3354 71.4317 53.9942 71.4317C64.6548 71.4317 71.6096 63.148 71.6096 37.0034C71.6096 33.3861 71.4717 30.1226 71.2142 27.1637C75.3638 41.0593 92.1745 44.414 92.1745 54.7739C92.1745 57.4725 90.7845 61.1915 86.7958 61.1915C81.6032 61.1915 81.6031 54.6816 81.6031 50.9585V50.9573H70.8481C70.8481 60.08 73.4473 71.4305 86.3345 71.4305C93.419 71.4305 98.3265 67.9744 100.879 62.7507V70.1288H109.782V21.5551H109.965L118.032 70.1288H124.707L132.868 21.5551H133.054V70.1288H143.807V38.2732C144.033 63.4074 150.929 71.4317 161.413 71.4317C171.019 71.4317 177.613 64.7008 178.825 44.249V70.1288H190.877V43.6088H195.7C204.518 43.6088 209.278 38.7453 210.949 30.9578C210.858 32.861 210.807 34.8668 210.807 37.0033C210.807 63.1485 217.761 71.4317 228.42 71.4317C239.085 71.4317 246.039 63.1479 246.039 37.0033C246.039 10.8545 239.085 2.57149 228.42 2.57149C219.92 2.57149 213.78 7.85044 211.64 23.2443C211.489 9.25494 204.364 3.87676 190.877 3.87676H178.825V29.7565C177.613 9.30172 171.019 2.57149 161.413 2.57149C150.929 2.57149 144.033 10.5959 143.807 35.7335V3.87676H128.137L122.482 37.8385H122.299L116.919 3.87676H100.879V18.5406C99.7583 8.94148 95.3824 2.57149 85.8719 2.57149C75.7812 2.57149 70.412 10.4972 70.2985 20.3054C67.8107 7.16873 61.9314 2.57152 53.9942 2.57152ZM246.297 3.87679V70.1288H273.743V59.8922H258.351V3.87679H246.297ZM275.673 3.87679V70.1288H287.725V3.87679H275.673ZM289.752 3.87679V14.1122H300.137V70.1288H312.191V14.1122H322.439L314.602 70.1288H324.707L326.374 55.4259H336.116L337.872 70.1288H348.808H349.464H359.005V30.0211H359.191L372.08 70.1288H381.443V3.87679H371.802V38.8615H371.617L360.585 3.87679H348.808V64.8073L341.301 3.87679H323.872L322.572 13.1637V3.87679H289.752ZM53.9942 12.8057C56.7776 12.8057 58.4442 15.6911 58.4442 30.0211V43.9809C58.4442 58.3103 56.7776 61.1915 53.9942 61.1915C51.2108 61.1915 49.5429 58.3103 49.5429 43.9809V30.0211C49.5429 15.6911 51.2108 12.8057 53.9942 12.8057ZM85.5895 12.8057C90.4115 12.8057 90.4114 19.0416 90.4114 22.7647H100.879V43.7813C95.4425 32.2279 81.0488 27.9898 81.0488 18.856C81.0488 15.2267 82.7181 12.8057 85.5895 12.8057ZM161.413 12.8057C164.193 12.8057 165.862 15.6911 165.862 30.0211V43.9809C165.862 58.3103 164.193 61.1915 161.413 61.1915C158.632 61.1915 156.962 58.3103 156.962 43.9809V30.0211C156.962 15.6911 158.632 12.8057 161.413 12.8057ZM228.421 12.8057C231.207 12.8057 232.872 15.6911 232.872 30.0211V43.9809C232.872 58.3103 231.207 61.1915 228.421 61.1915C225.641 61.1915 223.972 58.3103 223.972 43.9809V30.0211C223.972 15.6911 225.641 12.8057 228.421 12.8057ZM190.975 14.1122H191.897C195.884 14.1122 199.594 14.3901 199.594 23.9755C199.594 31.9769 196.904 33.9333 191.991 33.9333H190.975V14.1122ZM331.38 14.1122H331.567L335.088 45.7504H327.585L331.38 14.1122Z"></path>
</svg>
