<svg xmlns="http://www.w3.org/2000/svg" fill="none" viewBox="0 0 28 28" height="28" width="28">
<path fill="#FE6C84" d="M21.4221 8.16406H19.7294V9.1897H21.2919V20.4718H6.70878V9.1897H8.27125V8.16406H6.57857C6.45682 8.16607 6.33666 8.19167 6.22496 8.2394C6.11326 8.28713 6.01221 8.35607 5.92757 8.44226C5.84293 8.52846 5.77637 8.63023 5.73168 8.74176C5.68699 8.85328 5.66506 8.97239 5.66713 9.09227V20.5692C5.66506 20.6891 5.68699 20.8082 5.73168 20.9197C5.77637 21.0312 5.84293 21.133 5.92757 21.2192C6.01221 21.3054 6.11326 21.3743 6.22496 21.4221C6.33666 21.4698 6.45682 21.4954 6.57857 21.4974H21.4221C21.5438 21.4954 21.664 21.4698 21.7757 21.4221C21.8874 21.3743 21.9884 21.3054 22.0731 21.2192C22.1577 21.133 22.2243 21.0312 22.269 20.9197C22.3137 20.8082 22.3356 20.6891 22.3335 20.5692V9.09227C22.3356 8.97239 22.3137 8.85328 22.269 8.74176C22.2243 8.63023 22.1577 8.52846 22.0731 8.44226C21.9884 8.35607 21.8874 8.28713 21.7757 8.2394C21.664 8.19167 21.5438 8.16607 21.4221 8.16406Z"></path>
<path fill="#FE6C84" d="M9 12.3359H9.83333V13.1693H9V12.3359Z"></path>
<path fill="#FE6C84" d="M12.333 12.3359H13.1663V13.1693H12.333V12.3359Z"></path>
<path fill="#FE6C84" d="M14.833 12.3359H15.6663V13.1693H14.833V12.3359Z"></path>
<path fill="#FE6C84" d="M18.167 12.3359H19.0003V13.1693H18.167V12.3359Z"></path>
<path fill="#FE6C84" d="M9 14.8359H9.83333V15.6693H9V14.8359Z"></path>
<path fill="#FE6C84" d="M12.333 14.8359H13.1663V15.6693H12.333V14.8359Z"></path>
<path fill="#FE6C84" d="M14.833 14.8359H15.6663V15.6693H14.833V14.8359Z"></path>
<path fill="#FE6C84" d="M18.167 14.8359H19.0003V15.6693H18.167V14.8359Z"></path>
<path fill="#FE6C84" d="M9 17.3359H9.83333V18.1693H9V17.3359Z"></path>
<path fill="#FE6C84" d="M12.333 17.3359H13.1663V18.1693H12.333V17.3359Z"></path>
<path fill="#FE6C84" d="M14.833 17.3359H15.6663V18.1693H14.833V17.3359Z"></path>
<path fill="#FE6C84" d="M18.167 17.3359H19.0003V18.1693H18.167V17.3359Z"></path>
<path fill="#FE6C84" d="M10.2497 9.83073C10.3602 9.83073 10.4662 9.77586 10.5443 9.67818C10.6224 9.58051 10.6663 9.44803 10.6663 9.3099V6.1849C10.6663 6.04676 10.6224 5.91429 10.5443 5.81661C10.4662 5.71894 10.3602 5.66406 10.2497 5.66406C10.1392 5.66406 10.0332 5.71894 9.95505 5.81661C9.87691 5.91429 9.83301 6.04676 9.83301 6.1849V9.3099C9.83301 9.44803 9.87691 9.58051 9.95505 9.67818C10.0332 9.77586 10.1392 9.83073 10.2497 9.83073Z"></path>
<path fill="#FE6C84" d="M18.5837 9.83073C18.6942 9.83073 18.8001 9.77586 18.8783 9.67818C18.9564 9.58051 19.0003 9.44803 19.0003 9.3099V6.1849C19.0003 6.04676 18.9564 5.91429 18.8783 5.81661C18.8001 5.71894 18.6942 5.66406 18.5837 5.66406C18.4732 5.66406 18.3672 5.71894 18.289 5.81661C18.2109 5.91429 18.167 6.04676 18.167 6.1849V9.3099C18.167 9.44803 18.2109 9.58051 18.289 9.67818C18.3672 9.77586 18.4732 9.83073 18.5837 9.83073Z"></path>
<path fill="#FE6C84" d="M11.5 8.16406H16.5V8.9974H11.5V8.16406Z"></path>
<circle stroke="#FE6C84" r="13.5" cy="14" cx="14"></circle>
</svg>
