<svg xmlns="http://www.w3.org/2000/svg" fill="none" viewBox="0 0 24 24" height="24" width="24">
<path fill="#FE6C84" d="M9.90422 3.78917C5.74172 3.80276 2.63438 5.13964 0.885 6.79433L1.46438 7.4037C4.37906 4.65495 12.112 2.54745 22.762 8.28495L23.1652 7.54433C18.0652 4.79745 13.5745 3.77698 9.90422 3.78917ZM5.36203 7.76464C2.73797 8.7912 1.55766 10.8396 0.832031 12.1896L1.57547 12.5928C2.28984 11.2568 3.31594 9.47089 5.67141 8.55214C8.02453 7.63339 11.7886 7.57245 18.0042 9.9912L18.3136 9.2037C14.0152 7.67558 9.54797 6.1662 5.36203 7.76464ZM17.5683 11.3271C9.24797 15.6162 5.38078 14.3834 1.04672 13.2678L0.836719 14.0881C1.58484 14.2803 2.33391 14.4771 3.105 14.6459C2.1975 15.2834 1.75406 15.4521 1.22109 15.799C2.42344 15.7475 3.19828 15.3678 4.02 15.0209C3.43031 15.7475 2.91609 16.474 1.86375 17.2428C3.13031 16.9053 4.35 16.5303 5.26828 15.8928C4.68375 16.8303 3.96891 17.7443 3.16406 18.6396C4.54359 18.2084 5.58703 17.1678 6.66984 16.1365C6.65578 17.0318 6.23859 17.9271 5.94328 18.8225C6.92766 17.9178 7.34953 17.2662 7.94484 16.3615C7.88859 17.7303 8.27297 18.8365 8.61047 20.2053C8.82141 18.8975 9.05578 17.585 9.05578 16.3193C9.75891 17.4912 10.7011 18.56 11.887 19.5115C11.2542 18.41 10.6214 17.3131 10.2886 16.1693C11.498 17.3178 12.7589 18.4334 14.273 19.3662C13.2652 18.2646 12.3089 17.149 11.6902 15.9584C12.7777 16.9803 13.8698 18.0021 15.6886 18.5928C14.3714 17.6881 13.5277 16.6615 12.9089 15.5787C14.1605 16.6287 15.562 17.5615 17.2542 18.26C15.7589 17.2287 14.9152 16.1975 14.3386 15.1662C15.5761 16.1881 16.9917 16.8631 18.2245 17.5381C17.2495 16.6381 16.1855 15.7756 15.6745 14.7068C16.6823 15.5834 17.873 15.9631 19.0495 16.3709C17.9573 15.6443 17.3292 15.1521 16.6777 14.2943C17.7183 14.8193 18.5855 15.0256 19.837 15.335C19.0214 14.8803 18.1542 14.2568 17.5964 13.7178C18.848 14.0318 20.2214 14.0834 21.5152 14.0646C20.3292 13.7553 19.0402 13.4834 18.3558 13.01C21.0933 13.0334 21.262 12.7943 22.4105 12.2225C19.9823 12.4006 18.4402 12.3584 17.5683 11.3271Z"></path>
</svg>
