<svg xmlns="http://www.w3.org/2000/svg" xmlns:xlink="http://www.w3.org/1999/xlink" width="658" zoomAndPan="magnify" viewBox="0 0 493.5 44.999999" height="60" preserveAspectRatio="xMidYMid meet" version="1.0"><defs><clipPath id="484d3d2cea"><path d="M 5 5 L 56.546875 5 L 56.546875 40 L 5 40 Z M 5 5 " clip-rule="nonzero"/></clipPath><clipPath id="f1f4a5d12d"><path d="M 4.851562 0.0234375 L 56.546875 0.0234375 L 56.546875 44.976562 L 4.851562 44.976562 Z M 4.851562 0.0234375 " clip-rule="nonzero"/></clipPath><clipPath id="3de52a6fd5"><path d="M 74 5 L 125.636719 5 L 125.636719 40 L 74 40 Z M 74 5 " clip-rule="nonzero"/></clipPath><clipPath id="e00da0cc74"><path d="M 73.9375 0.0234375 L 125.636719 0.0234375 L 125.636719 44.976562 L 73.9375 44.976562 Z M 73.9375 0.0234375 " clip-rule="nonzero"/></clipPath><clipPath id="9381044977"><path d="M 143.027344 5 L 194.726562 5 L 194.726562 41 L 143.027344 41 Z M 143.027344 5 " clip-rule="nonzero"/></clipPath><clipPath id="c9978c090d"><path d="M 143.027344 0.0234375 L 194.726562 0.0234375 L 194.726562 44.976562 L 143.027344 44.976562 Z M 143.027344 0.0234375 " clip-rule="nonzero"/></clipPath><clipPath id="737ce79762"><path d="M 212.117188 5 L 263.8125 5 L 263.8125 41 L 212.117188 41 Z M 212.117188 5 " clip-rule="nonzero"/></clipPath><clipPath id="388d3c2bd1"><path d="M 212.117188 0.0234375 L 263.8125 0.0234375 L 263.8125 44.976562 L 212.117188 44.976562 Z M 212.117188 0.0234375 " clip-rule="nonzero"/></clipPath><clipPath id="38ec513c0b"><path d="M 281.046875 5.1875 L 337.988281 5.1875 L 337.988281 41.152344 L 281.046875 41.152344 Z M 281.046875 5.1875 " clip-rule="nonzero"/></clipPath><clipPath id="9ba3176417"><path d="M 355.363281 5.265625 L 412.304688 5.265625 L 412.304688 41.230469 L 355.363281 41.230469 Z M 355.363281 5.265625 " clip-rule="nonzero"/></clipPath><clipPath id="4966ad7fa7"><path d="M 430.300781 5.265625 L 488.742188 5.265625 L 488.742188 40.480469 L 430.300781 40.480469 Z M 430.300781 5.265625 " clip-rule="nonzero"/></clipPath></defs><g clip-path="url(#484d3d2cea)"><path fill="#ffffff" d="M 8.417969 5.03125 L 52.984375 5.03125 C 53.398438 5.03125 53.792969 5.109375 54.175781 5.269531 C 54.558594 5.425781 54.898438 5.652344 55.1875 5.945312 C 55.480469 6.238281 55.707031 6.574219 55.867188 6.957031 C 56.023438 7.339844 56.101562 7.738281 56.101562 8.152344 L 56.101562 36.671875 C 56.101562 37.085938 56.023438 37.484375 55.867188 37.867188 C 55.707031 38.25 55.480469 38.585938 55.1875 38.878906 C 54.898438 39.171875 54.558594 39.398438 54.175781 39.554688 C 53.792969 39.714844 53.398438 39.792969 52.984375 39.792969 L 8.417969 39.792969 C 8.003906 39.792969 7.605469 39.714844 7.222656 39.554688 C 6.839844 39.398438 6.503906 39.171875 6.210938 38.878906 C 5.917969 38.585938 5.691406 38.25 5.535156 37.867188 C 5.375 37.484375 5.296875 37.085938 5.296875 36.671875 L 5.296875 8.152344 C 5.296875 7.738281 5.375 7.339844 5.535156 6.957031 C 5.691406 6.574219 5.917969 6.238281 6.210938 5.945312 C 6.503906 5.652344 6.839844 5.425781 7.222656 5.269531 C 7.605469 5.109375 8.003906 5.03125 8.417969 5.03125 Z M 8.417969 5.03125 " fill-opacity="1" fill-rule="nonzero"/></g><g clip-path="url(#f1f4a5d12d)"><path stroke-linecap="butt" transform="matrix(0.891338, 0, 0, 0.891338, 4.850955, 4.585253)" fill="none" stroke-linejoin="miter" d="M 4.001864 0.500368 L 54.001297 0.500368 C 54.465837 0.500368 54.908465 0.588017 55.337945 0.767698 C 55.767426 0.942996 56.1487 1.197179 56.473001 1.525863 C 56.801686 1.854547 57.055868 2.231438 57.235549 2.660919 C 57.410847 3.0904 57.498496 3.53741 57.498496 4.00195 L 57.498496 35.998258 C 57.498496 36.462799 57.410847 36.909809 57.235549 37.33929 C 57.055868 37.76877 56.801686 38.145662 56.473001 38.474346 C 56.1487 38.80303 55.767426 39.057212 55.337945 39.232511 C 54.908465 39.412191 54.465837 39.49984 54.001297 39.49984 L 4.001864 39.49984 C 3.537324 39.49984 3.090313 39.412191 2.660832 39.232511 C 2.231352 39.057212 1.854461 38.80303 1.525777 38.474346 C 1.197092 38.145662 0.94291 37.76877 0.767612 37.33929 C 0.587931 36.909809 0.500282 36.462799 0.500282 35.998258 L 0.500282 4.00195 C 0.500282 3.53741 0.587931 3.0904 0.767612 2.660919 C 0.94291 2.231438 1.197092 1.854547 1.525777 1.525863 C 1.854461 1.197179 2.231352 0.942996 2.660832 0.767698 C 3.090313 0.588017 3.537324 0.500368 4.001864 0.500368 Z M 4.001864 0.500368 " stroke="#f3f3f3" stroke-width="1" stroke-opacity="1" stroke-miterlimit="4"/></g><path fill="#000000" d="M 20.519531 17.890625 C 20.140625 18.339844 19.539062 18.695312 18.9375 18.644531 C 18.863281 18.035156 19.15625 17.390625 19.503906 16.988281 C 19.878906 16.527344 20.535156 16.199219 21.070312 16.171875 C 21.132812 16.804688 20.886719 17.425781 20.519531 17.890625 Z M 21.0625 18.765625 C 20.535156 18.734375 20.050781 18.925781 19.660156 19.082031 C 19.40625 19.179688 19.195312 19.265625 19.03125 19.265625 C 18.851562 19.265625 18.628906 19.175781 18.378906 19.074219 C 18.054688 18.945312 17.679688 18.796875 17.289062 18.800781 C 16.394531 18.816406 15.5625 19.328125 15.101562 20.144531 C 14.164062 21.78125 14.859375 24.199219 15.765625 25.53125 C 16.210938 26.191406 16.746094 26.914062 17.445312 26.886719 C 17.757812 26.875 17.976562 26.78125 18.207031 26.683594 C 18.472656 26.570312 18.746094 26.449219 19.175781 26.449219 C 19.589844 26.449219 19.855469 26.566406 20.105469 26.675781 C 20.347656 26.78125 20.578125 26.882812 20.917969 26.875 C 21.644531 26.863281 22.105469 26.214844 22.546875 25.558594 C 23.027344 24.851562 23.238281 24.160156 23.273438 24.054688 L 23.277344 24.042969 C 23.273438 24.042969 23.269531 24.039062 23.257812 24.035156 C 23.097656 23.960938 21.871094 23.390625 21.859375 21.871094 C 21.847656 20.589844 22.832031 19.945312 22.988281 19.839844 C 22.996094 19.835938 23.003906 19.832031 23.007812 19.828125 C 22.378906 18.890625 21.402344 18.789062 21.0625 18.765625 Z M 26.097656 26.804688 L 26.097656 16.925781 L 29.761719 16.925781 C 31.65625 16.925781 32.976562 18.246094 32.976562 20.171875 C 32.976562 22.097656 31.628906 23.429688 29.710938 23.429688 L 27.613281 23.429688 L 27.613281 26.804688 Z M 27.613281 18.21875 L 29.359375 18.21875 C 30.675781 18.21875 31.429688 18.929688 31.429688 20.175781 C 31.429688 21.425781 30.675781 22.140625 29.355469 22.140625 L 27.613281 22.140625 Z M 37.984375 25.621094 C 37.582031 26.394531 36.699219 26.882812 35.746094 26.882812 C 34.335938 26.882812 33.351562 26.03125 33.351562 24.753906 C 33.351562 23.484375 34.304688 22.757812 36.066406 22.648438 L 37.960938 22.535156 L 37.960938 21.988281 C 37.960938 21.183594 37.441406 20.746094 36.511719 20.746094 C 35.746094 20.746094 35.191406 21.148438 35.078125 21.753906 L 33.710938 21.753906 C 33.753906 20.476562 34.945312 19.542969 36.554688 19.542969 C 38.292969 19.542969 39.421875 20.460938 39.421875 21.886719 L 39.421875 26.804688 L 38.015625 26.804688 L 38.015625 25.621094 Z M 36.15625 25.710938 C 35.347656 25.710938 34.832031 25.316406 34.832031 24.714844 C 34.832031 24.09375 35.328125 23.730469 36.273438 23.675781 L 37.960938 23.566406 L 37.960938 24.125 C 37.960938 25.050781 37.183594 25.710938 36.15625 25.710938 Z M 44.078125 27.191406 C 43.46875 28.921875 42.773438 29.492188 41.292969 29.492188 C 41.179688 29.492188 40.804688 29.480469 40.71875 29.453125 L 40.71875 28.269531 C 40.8125 28.28125 41.042969 28.292969 41.164062 28.292969 C 41.832031 28.292969 42.210938 28.007812 42.441406 27.269531 L 42.578125 26.832031 L 40.007812 19.640625 L 41.59375 19.640625 L 43.382812 25.476562 L 43.414062 25.476562 L 45.199219 19.640625 L 46.738281 19.640625 Z M 44.078125 27.191406 " fill-opacity="1" fill-rule="evenodd"/><g clip-path="url(#3de52a6fd5)"><path fill="#ffffff" d="M 77.503906 5.03125 L 122.070312 5.03125 C 122.484375 5.03125 122.882812 5.109375 123.265625 5.269531 C 123.648438 5.425781 123.984375 5.652344 124.277344 5.945312 C 124.570312 6.238281 124.796875 6.574219 124.953125 6.957031 C 125.113281 7.339844 125.191406 7.738281 125.191406 8.152344 L 125.191406 36.671875 C 125.191406 37.085938 125.113281 37.484375 124.953125 37.867188 C 124.796875 38.25 124.570312 38.585938 124.277344 38.878906 C 123.984375 39.171875 123.648438 39.398438 123.265625 39.554688 C 122.882812 39.714844 122.484375 39.792969 122.070312 39.792969 L 77.503906 39.792969 C 77.089844 39.792969 76.691406 39.714844 76.3125 39.554688 C 75.929688 39.398438 75.589844 39.171875 75.300781 38.878906 C 75.007812 38.585938 74.78125 38.25 74.621094 37.867188 C 74.464844 37.484375 74.386719 37.085938 74.386719 36.671875 L 74.386719 8.152344 C 74.386719 7.738281 74.464844 7.339844 74.621094 6.957031 C 74.78125 6.574219 75.007812 6.238281 75.300781 5.945312 C 75.589844 5.652344 75.929688 5.425781 76.3125 5.269531 C 76.691406 5.109375 77.089844 5.03125 77.503906 5.03125 Z M 77.503906 5.03125 " fill-opacity="1" fill-rule="nonzero"/></g><g clip-path="url(#e00da0cc74)"><path stroke-linecap="butt" transform="matrix(0.891338, 0, 0, 0.891338, 73.939435, 4.585253)" fill="none" stroke-linejoin="miter" d="M 3.999011 0.500368 L 53.998444 0.500368 C 54.462984 0.500368 54.909995 0.588017 55.339475 0.767698 C 55.768956 0.942996 56.145847 1.197179 56.474531 1.525863 C 56.803215 1.854547 57.057398 2.231438 57.232696 2.660919 C 57.412377 3.0904 57.500026 3.53741 57.500026 4.00195 L 57.500026 35.998258 C 57.500026 36.462799 57.412377 36.909809 57.232696 37.33929 C 57.057398 37.76877 56.803215 38.145662 56.474531 38.474346 C 56.145847 38.80303 55.768956 39.057212 55.339475 39.232511 C 54.909995 39.412191 54.462984 39.49984 53.998444 39.49984 L 3.999011 39.49984 C 3.534471 39.49984 3.08746 39.412191 2.662362 39.232511 C 2.232882 39.057212 1.851608 38.80303 1.527306 38.474346 C 1.198622 38.145662 0.94444 37.76877 0.764759 37.33929 C 0.589461 36.909809 0.501812 36.462799 0.501812 35.998258 L 0.501812 4.00195 C 0.501812 3.53741 0.589461 3.0904 0.764759 2.660919 C 0.94444 2.231438 1.198622 1.854547 1.527306 1.525863 C 1.851608 1.197179 2.232882 0.942996 2.662362 0.767698 C 3.08746 0.588017 3.534471 0.500368 3.999011 0.500368 Z M 3.999011 0.500368 " stroke="#f3f3f3" stroke-width="1" stroke-opacity="1" stroke-miterlimit="4"/></g><path fill="#5f6368" d="M 98.824219 26.082031 L 98.824219 22.0625 L 101 22.0625 C 101.894531 22.0625 102.648438 21.78125 103.257812 21.214844 C 103.875 20.679688 104.222656 19.910156 104.203125 19.109375 C 104.214844 18.308594 103.871094 17.546875 103.257812 17.011719 C 102.65625 16.445312 101.839844 16.136719 101 16.152344 L 97.507812 16.152344 L 97.507812 26.082031 Z M 98.824219 20.839844 L 98.824219 17.375 L 101.03125 17.375 C 101.523438 17.359375 101.996094 17.554688 102.332031 17.902344 C 102.671875 18.21875 102.863281 18.65625 102.863281 19.113281 C 102.863281 19.570312 102.671875 20.007812 102.332031 20.328125 C 101.992188 20.667969 101.519531 20.855469 101.03125 20.839844 Z M 98.824219 20.839844 " fill-opacity="1" fill-rule="evenodd"/><path fill="#5f6368" d="M 109.542969 19.824219 C 108.980469 19.320312 108.210938 19.066406 107.238281 19.066406 C 105.988281 19.066406 105.042969 19.511719 104.40625 20.398438 L 105.566406 21.105469 C 105.992188 20.503906 106.574219 20.203125 107.3125 20.203125 C 107.78125 20.199219 108.234375 20.363281 108.582031 20.667969 C 108.929688 20.945312 109.128906 21.363281 109.125 21.796875 L 109.125 22.089844 C 108.621094 21.8125 107.976562 21.671875 107.195312 21.671875 C 106.277344 21.675781 105.546875 21.882812 105 22.296875 C 104.449219 22.714844 104.175781 23.273438 104.175781 23.976562 C 104.164062 24.617188 104.449219 25.226562 104.957031 25.640625 C 105.476562 26.082031 106.121094 26.304688 106.894531 26.304688 C 107.800781 26.304688 108.523438 25.917969 109.070312 25.140625 L 109.125 25.140625 L 109.125 26.082031 L 110.386719 26.082031 L 110.386719 21.894531 C 110.386719 21.015625 110.105469 20.328125 109.542969 19.824219 Z M 105.972656 24.835938 C 105.695312 24.640625 105.53125 24.332031 105.535156 24.003906 C 105.535156 23.632812 105.714844 23.324219 106.074219 23.070312 C 106.429688 22.820312 106.878906 22.695312 107.410156 22.695312 C 108.144531 22.695312 108.71875 22.855469 109.128906 23.171875 C 109.128906 23.707031 108.910156 24.175781 108.476562 24.570312 C 108.082031 24.953125 107.550781 25.167969 106.996094 25.167969 C 106.625 25.175781 106.261719 25.058594 105.972656 24.835938 Z M 105.972656 24.835938 " fill-opacity="1" fill-rule="evenodd"/><path fill="#5f6368" d="M 117.613281 19.289062 L 113.21875 29.078125 L 111.859375 29.078125 L 113.492188 25.652344 L 110.601562 19.289062 L 112.03125 19.289062 L 114.121094 24.167969 L 114.148438 24.167969 L 116.179688 19.289062 Z M 117.613281 19.289062 " fill-opacity="1" fill-rule="evenodd"/><path fill="#4285f4" d="M 93.503906 21.195312 C 93.503906 20.804688 93.46875 20.417969 93.402344 20.035156 L 87.847656 20.035156 L 87.847656 22.230469 L 91.03125 22.230469 C 90.898438 22.941406 90.472656 23.566406 89.851562 23.964844 L 89.851562 25.390625 L 91.75 25.390625 C 92.863281 24.398438 93.503906 22.929688 93.503906 21.195312 Z M 93.503906 21.195312 " fill-opacity="1" fill-rule="evenodd"/><path fill="#34a853" d="M 87.847656 26.769531 C 89.4375 26.769531 90.777344 26.265625 91.75 25.394531 L 89.851562 23.964844 C 89.324219 24.3125 88.644531 24.511719 87.847656 24.511719 C 86.3125 24.511719 85.011719 23.507812 84.542969 22.15625 L 82.589844 22.15625 L 82.589844 23.625 C 83.589844 25.554688 85.625 26.769531 87.847656 26.769531 Z M 87.847656 26.769531 " fill-opacity="1" fill-rule="evenodd"/><path fill="#fbbc04" d="M 84.542969 22.15625 C 84.296875 21.449219 84.296875 20.679688 84.542969 19.972656 L 84.542969 18.503906 L 82.589844 18.503906 C 81.753906 20.113281 81.753906 22.015625 82.589844 23.625 Z M 84.542969 22.15625 " fill-opacity="1" fill-rule="evenodd"/><path fill="#ea4335" d="M 87.847656 17.617188 C 88.6875 17.605469 89.5 17.914062 90.109375 18.472656 L 91.789062 16.847656 C 90.722656 15.875 89.3125 15.34375 87.847656 15.359375 C 85.625 15.359375 83.589844 16.578125 82.589844 18.503906 L 84.542969 19.972656 C 85.011719 18.621094 86.3125 17.617188 87.847656 17.617188 Z M 87.847656 17.617188 " fill-opacity="1" fill-rule="evenodd"/><g clip-path="url(#9381044977)"><path fill="#ffffff" d="M 146.59375 5.703125 L 191.160156 5.703125 C 191.574219 5.703125 191.972656 5.78125 192.355469 5.941406 C 192.734375 6.097656 193.074219 6.324219 193.367188 6.617188 C 193.660156 6.910156 193.882812 7.246094 194.042969 7.628906 C 194.199219 8.011719 194.28125 8.410156 194.28125 8.824219 L 194.28125 37.347656 C 194.28125 37.757812 194.199219 38.15625 194.042969 38.539062 C 193.882812 38.921875 193.660156 39.257812 193.367188 39.550781 C 193.074219 39.84375 192.734375 40.070312 192.355469 40.226562 C 191.972656 40.386719 191.574219 40.464844 191.160156 40.464844 L 146.59375 40.464844 C 146.179688 40.464844 145.78125 40.386719 145.398438 40.226562 C 145.015625 40.070312 144.679688 39.84375 144.386719 39.550781 C 144.09375 39.257812 143.871094 38.921875 143.710938 38.539062 C 143.550781 38.15625 143.472656 37.757812 143.472656 37.347656 L 143.472656 8.824219 C 143.472656 8.410156 143.550781 8.011719 143.710938 7.628906 C 143.871094 7.246094 144.09375 6.910156 144.386719 6.617188 C 144.679688 6.324219 145.015625 6.097656 145.398438 5.941406 C 145.78125 5.78125 146.179688 5.703125 146.59375 5.703125 Z M 146.59375 5.703125 " fill-opacity="1" fill-rule="nonzero"/></g><g clip-path="url(#c9978c090d)"><path stroke-linecap="butt" transform="matrix(0.891338, 0, 0, 0.891338, 143.027901, 5.257541)" fill="none" stroke-linejoin="miter" d="M 4.000557 0.499905 L 53.99999 0.499905 C 54.46453 0.499905 54.91154 0.587554 55.341021 0.767235 C 55.766119 0.942533 56.147393 1.196715 56.476077 1.525399 C 56.804761 1.854084 57.054561 2.230975 57.234242 2.660455 C 57.40954 3.089936 57.501571 3.536946 57.501571 4.001487 L 57.501571 36.002177 C 57.501571 36.462335 57.40954 36.909346 57.234242 37.338826 C 57.054561 37.768307 56.804761 38.145198 56.476077 38.473882 C 56.147393 38.802566 55.766119 39.056749 55.341021 39.232047 C 54.91154 39.411728 54.46453 39.499377 53.99999 39.499377 L 4.000557 39.499377 C 3.536017 39.499377 3.089006 39.411728 2.659526 39.232047 C 2.230045 39.056749 1.853154 38.802566 1.52447 38.473882 C 1.195785 38.145198 0.945986 37.768307 0.766305 37.338826 C 0.586624 36.909346 0.498975 36.462335 0.498975 36.002177 L 0.498975 4.001487 C 0.498975 3.536946 0.586624 3.089936 0.766305 2.660455 C 0.945986 2.230975 1.195785 1.854084 1.52447 1.525399 C 1.853154 1.196715 2.230045 0.942533 2.659526 0.767235 C 3.089006 0.587554 3.536017 0.499905 4.000557 0.499905 Z M 4.000557 0.499905 " stroke="#f3f3f3" stroke-width="1" stroke-opacity="1" stroke-miterlimit="4"/></g><path fill="#15195a" d="M 165.980469 29.710938 L 162.539062 29.710938 L 164.691406 17.230469 L 168.132812 17.230469 Z M 165.980469 29.710938 " fill-opacity="1" fill-rule="nonzero"/><path fill="#15195a" d="M 178.457031 17.535156 C 177.78125 17.28125 176.703125 17.003906 175.371094 17.003906 C 171.972656 17.003906 169.578125 18.703125 169.5625 21.132812 C 169.535156 22.925781 171.277344 23.921875 172.582031 24.519531 C 173.914062 25.128906 174.363281 25.527344 174.363281 26.070312 C 174.351562 26.90625 173.289062 27.292969 172.296875 27.292969 C 170.925781 27.292969 170.1875 27.09375 169.070312 26.628906 L 168.617188 26.429688 L 168.132812 29.230469 C 168.941406 29.578125 170.429688 29.882812 171.972656 29.894531 C 175.582031 29.894531 177.933594 28.222656 177.964844 25.632812 C 177.976562 24.214844 177.058594 23.125 175.074219 22.234375 C 173.871094 21.664062 173.132812 21.277344 173.132812 20.695312 C 173.148438 20.164062 173.757812 19.621094 175.117188 19.621094 C 176.234375 19.59375 177.054688 19.84375 177.679688 20.097656 L 177.992188 20.230469 Z M 178.457031 17.535156 " fill-opacity="1" fill-rule="nonzero"/><path fill="#15195a" d="M 184.621094 17.230469 L 187.28125 17.230469 L 190.058594 29.710938 L 186.871094 29.710938 C 186.871094 29.710938 186.558594 28.277344 186.460938 27.835938 L 182.042969 27.835938 C 181.914062 28.167969 181.320312 29.710938 181.320312 29.710938 L 177.707031 29.710938 L 182.820312 18.265625 C 183.175781 17.457031 183.796875 17.230469 184.621094 17.230469 Z M 184.40625 21.796875 C 184.40625 21.796875 183.316406 24.570312 183.03125 25.289062 L 185.894531 25.289062 C 185.753906 24.664062 185.101562 21.675781 185.101562 21.675781 L 184.859375 20.601562 C 184.757812 20.878906 184.613281 21.261719 184.511719 21.515625 C 184.445312 21.691406 184.402344 21.808594 184.40625 21.796875 Z M 184.40625 21.796875 " fill-opacity="1" fill-rule="evenodd"/><path fill="#15195a" d="M 147.625 17.230469 L 153.164062 17.230469 C 153.914062 17.257812 154.523438 17.484375 154.722656 18.28125 L 155.925781 24.011719 C 155.925781 24.011719 155.925781 24.015625 155.925781 24.015625 L 156.292969 25.738281 L 159.664062 17.230469 L 163.304688 17.230469 L 157.894531 29.695312 L 154.253906 29.695312 L 151.1875 18.851562 C 150.128906 18.273438 148.921875 17.804688 147.570312 17.484375 Z M 147.625 17.230469 " fill-opacity="1" fill-rule="evenodd"/><g clip-path="url(#737ce79762)"><path fill="#ffffff" d="M 215.683594 5.867188 L 260.25 5.867188 C 260.664062 5.867188 261.058594 5.949219 261.441406 6.105469 C 261.824219 6.265625 262.160156 6.488281 262.453125 6.78125 C 262.746094 7.074219 262.972656 7.410156 263.128906 7.792969 C 263.289062 8.175781 263.367188 8.574219 263.367188 8.988281 L 263.367188 37.511719 C 263.367188 37.925781 263.289062 38.324219 263.128906 38.703125 C 262.972656 39.085938 262.746094 39.425781 262.453125 39.714844 C 262.160156 40.007812 261.824219 40.234375 261.441406 40.394531 C 261.058594 40.550781 260.664062 40.628906 260.25 40.628906 L 215.683594 40.628906 C 215.269531 40.628906 214.871094 40.550781 214.488281 40.394531 C 214.105469 40.234375 213.769531 40.007812 213.476562 39.714844 C 213.183594 39.425781 212.957031 39.085938 212.800781 38.703125 C 212.640625 38.324219 212.5625 37.925781 212.5625 37.511719 L 212.5625 8.988281 C 212.5625 8.574219 212.640625 8.175781 212.800781 7.792969 C 212.957031 7.410156 213.183594 7.074219 213.476562 6.78125 C 213.769531 6.488281 214.105469 6.265625 214.488281 6.105469 C 214.871094 5.949219 215.269531 5.867188 215.683594 5.867188 Z M 215.683594 5.867188 " fill-opacity="1" fill-rule="nonzero"/></g><g clip-path="url(#388d3c2bd1)"><path stroke-linecap="butt" transform="matrix(0.891338, 0, 0, 0.891338, 212.116381, 5.422474)" fill="none" stroke-linejoin="miter" d="M 4.002087 0.498927 L 54.001519 0.498927 C 54.46606 0.498927 54.908688 0.590959 55.338168 0.766257 C 55.767649 0.945938 56.14454 1.195738 56.473224 1.524422 C 56.801908 1.853106 57.056091 2.229997 57.231389 2.659478 C 57.41107 3.088958 57.498719 3.535969 57.498719 4.000509 L 57.498719 36.001198 C 57.498719 36.465738 57.41107 36.912749 57.231389 37.337847 C 57.056091 37.767327 56.801908 38.148601 56.473224 38.472903 C 56.14454 38.801587 55.767649 39.055769 55.338168 39.23545 C 54.908688 39.410748 54.46606 39.498397 54.001519 39.498397 L 4.002087 39.498397 C 3.537546 39.498397 3.090536 39.410748 2.661055 39.23545 C 2.231575 39.055769 1.854683 38.801587 1.525999 38.472903 C 1.197315 38.148601 0.943133 37.767327 0.767835 37.337847 C 0.588154 36.912749 0.500505 36.465738 0.500505 36.001198 L 0.500505 4.000509 C 0.500505 3.535969 0.588154 3.088958 0.767835 2.659478 C 0.943133 2.229997 1.197315 1.853106 1.525999 1.524422 C 1.854683 1.195738 2.231575 0.945938 2.661055 0.766257 C 3.090536 0.590959 3.537546 0.498927 4.002087 0.498927 Z M 4.002087 0.498927 " stroke="#f3f3f3" stroke-width="1" stroke-opacity="1" stroke-miterlimit="4"/></g><path fill="#ff5f00" d="M 233.472656 14.792969 L 242.699219 14.792969 L 242.699219 31.25 L 233.472656 31.25 Z M 233.472656 14.792969 " fill-opacity="1" fill-rule="nonzero"/><path fill="#eb001b" d="M 234.0625 23.019531 C 234.0625 19.679688 235.636719 16.707031 238.089844 14.792969 C 236.296875 13.390625 234.035156 12.554688 231.574219 12.554688 C 225.75 12.554688 221.03125 17.238281 221.03125 23.019531 C 221.03125 28.800781 225.75 33.488281 231.574219 33.488281 C 234.035156 33.488281 236.296875 32.652344 238.089844 31.25 C 235.636719 29.332031 234.0625 26.359375 234.0625 23.019531 " fill-opacity="1" fill-rule="nonzero"/><path fill="#f79e1b" d="M 255.140625 23.019531 C 255.140625 28.800781 250.421875 33.488281 244.597656 33.488281 C 242.136719 33.488281 239.875 32.652344 238.082031 31.25 C 240.535156 29.332031 242.109375 26.359375 242.109375 23.019531 C 242.109375 19.679688 240.535156 16.707031 238.082031 14.792969 C 239.875 13.390625 242.136719 12.554688 244.597656 12.554688 C 250.421875 12.554688 255.140625 17.238281 255.140625 23.019531 " fill-opacity="1" fill-rule="nonzero"/><g clip-path="url(#38ec513c0b)"><path fill="#000000" d="M 333.433594 5.1875 L 285.601562 5.1875 C 283.058594 5.1875 281.117188 7.136719 281.117188 9.683594 L 281.117188 36.65625 C 281.117188 39.203125 283.210938 41.152344 285.601562 41.152344 L 333.433594 41.152344 C 335.976562 41.152344 337.917969 39.203125 337.917969 36.65625 L 337.917969 9.683594 C 337.917969 7.136719 335.824219 5.1875 333.433594 5.1875 Z M 333.433594 5.1875 " fill-opacity="0.07" fill-rule="nonzero"/></g><path fill="#ffffff" d="M 333.433594 6.6875 C 335.078125 6.6875 336.425781 8.035156 336.425781 9.683594 L 336.425781 36.65625 C 336.425781 38.304688 335.078125 39.652344 333.433594 39.652344 L 285.601562 39.652344 C 283.957031 39.652344 282.613281 38.304688 282.613281 36.65625 L 282.613281 9.683594 C 282.613281 8.035156 283.957031 6.6875 285.601562 6.6875 L 333.433594 6.6875 " fill-opacity="1" fill-rule="nonzero"/><path fill="#003087" d="M 316.84375 17.625 C 317.140625 16.128906 316.84375 15.078125 315.945312 14.179688 C 315.046875 13.128906 313.402344 12.679688 311.3125 12.679688 L 305.183594 12.679688 C 304.734375 12.679688 304.433594 12.980469 304.285156 13.429688 L 302.042969 28.566406 C 302.042969 28.863281 302.191406 29.164062 302.492188 29.164062 L 306.527344 29.164062 L 307.125 24.070312 L 309.816406 20.773438 Z M 316.84375 17.625 " fill-opacity="1" fill-rule="nonzero"/><path fill="#3086c8" d="M 316.84375 17.625 L 316.542969 17.925781 C 315.796875 22.121094 313.253906 23.621094 309.667969 23.621094 L 308.023438 23.621094 C 307.574219 23.621094 307.277344 23.917969 307.125 24.367188 L 306.230469 30.214844 L 305.929688 31.710938 C 305.929688 32.011719 306.078125 32.3125 306.378906 32.3125 L 309.519531 32.3125 C 309.964844 32.3125 310.265625 32.011719 310.265625 31.710938 L 310.265625 31.5625 L 310.863281 27.964844 L 310.863281 27.816406 C 310.863281 27.515625 311.3125 27.214844 311.609375 27.214844 L 312.058594 27.214844 C 315.199219 27.214844 317.589844 26.015625 318.1875 22.421875 C 318.488281 20.921875 318.335938 19.722656 317.589844 18.824219 C 317.441406 18.074219 317.140625 17.777344 316.84375 17.625 Z M 316.84375 17.625 " fill-opacity="1" fill-rule="nonzero"/><path fill="#012169" d="M 315.945312 17.324219 C 315.796875 17.175781 315.644531 17.175781 315.496094 17.175781 C 315.347656 17.175781 315.199219 17.175781 315.046875 17.027344 C 314.601562 16.875 314.003906 16.875 313.402344 16.875 L 308.917969 16.875 C 308.769531 16.875 308.621094 16.875 308.621094 17.027344 C 308.320312 17.175781 308.171875 17.324219 308.171875 17.625 L 307.125 24.21875 L 307.125 24.367188 C 307.125 23.917969 307.574219 23.621094 308.023438 23.621094 L 309.964844 23.621094 C 313.703125 23.621094 316.09375 22.121094 316.84375 17.925781 L 316.84375 17.625 C 316.691406 17.476562 316.394531 17.324219 316.09375 17.324219 Z M 315.945312 17.324219 " fill-opacity="1" fill-rule="nonzero"/><g clip-path="url(#9ba3176417)"><path fill="#ffb3c7" d="M 407.753906 5.265625 L 359.917969 5.265625 C 357.378906 5.265625 355.433594 7.214844 355.433594 9.761719 L 355.433594 36.734375 C 355.433594 39.28125 357.527344 41.230469 359.917969 41.230469 L 407.753906 41.230469 C 410.292969 41.230469 412.238281 39.28125 412.238281 36.734375 L 412.238281 9.761719 C 412.238281 7.214844 410.144531 5.265625 407.753906 5.265625 Z M 407.753906 5.265625 " fill-opacity="1" fill-rule="evenodd"/></g><path fill="#ffb3c7" d="M 407.753906 6.765625 C 409.394531 6.765625 410.742188 8.113281 410.742188 9.761719 L 410.742188 36.734375 C 410.742188 38.382812 409.394531 39.734375 407.753906 39.734375 L 359.917969 39.734375 C 358.273438 39.734375 356.929688 38.382812 356.929688 36.734375 L 356.929688 9.761719 C 356.929688 8.113281 358.273438 6.765625 359.917969 6.765625 L 407.753906 6.765625 " fill-opacity="1" fill-rule="evenodd"/><path fill="#0a0b09" d="M 406.433594 25.023438 C 405.703125 25.023438 405.113281 25.621094 405.113281 26.359375 C 405.113281 27.097656 405.703125 27.699219 406.433594 27.699219 C 407.160156 27.699219 407.753906 27.097656 407.753906 26.359375 C 407.753906 26.183594 407.71875 26.015625 407.652344 25.851562 C 407.585938 25.6875 407.492188 25.542969 407.367188 25.417969 C 407.246094 25.292969 407.101562 25.195312 406.9375 25.128906 C 406.777344 25.058594 406.609375 25.023438 406.433594 25.023438 Z M 402.09375 23.988281 C 402.09375 22.976562 401.242188 22.15625 400.1875 22.15625 C 399.136719 22.15625 398.285156 22.976562 398.285156 23.988281 C 398.285156 25 399.136719 25.820312 400.1875 25.820312 C 401.242188 25.820312 402.09375 25 402.09375 23.988281 Z M 402.101562 20.429688 L 404.203125 20.429688 L 404.203125 27.546875 L 402.101562 27.546875 L 402.101562 27.09375 C 401.472656 27.527344 400.777344 27.746094 400.015625 27.746094 C 397.96875 27.746094 396.3125 26.0625 396.3125 23.988281 C 396.3125 21.914062 397.972656 20.234375 400.015625 20.234375 C 400.789062 20.234375 401.503906 20.472656 402.101562 20.882812 Z M 385.277344 21.355469 L 385.277344 20.429688 L 383.125 20.429688 L 383.125 27.546875 L 385.285156 27.546875 L 385.285156 24.226562 C 385.285156 23.101562 386.484375 22.5 387.316406 22.5 L 387.339844 22.5 L 387.339844 20.429688 C 386.488281 20.429688 385.699219 20.800781 385.277344 21.355469 Z M 379.917969 23.988281 C 379.917969 22.976562 379.066406 22.15625 378.015625 22.15625 C 376.964844 22.15625 376.109375 22.976562 376.109375 23.988281 C 376.109375 25 376.960938 25.820312 378.015625 25.820312 C 379.066406 25.820312 379.917969 25 379.917969 23.988281 Z M 379.925781 20.429688 L 382.027344 20.429688 L 382.027344 27.546875 L 379.925781 27.546875 L 379.925781 27.09375 C 379.300781 27.527344 378.605469 27.746094 377.839844 27.746094 C 375.796875 27.746094 374.136719 26.0625 374.136719 23.988281 C 374.136719 21.914062 375.796875 20.234375 377.839844 20.234375 C 378.613281 20.234375 379.332031 20.472656 379.925781 20.882812 Z M 392.578125 20.238281 C 391.738281 20.238281 390.941406 20.503906 390.414062 21.230469 L 390.414062 20.429688 L 388.320312 20.429688 L 388.320312 27.546875 L 390.4375 27.546875 L 390.4375 23.808594 C 390.4375 22.726562 391.152344 22.195312 392.015625 22.195312 C 392.9375 22.195312 393.46875 22.753906 393.46875 23.792969 L 393.46875 27.546875 L 395.570312 27.546875 L 395.570312 23.019531 C 395.570312 21.363281 394.269531 20.238281 392.578125 20.238281 Z M 371.078125 27.550781 L 373.277344 27.550781 L 373.277344 17.253906 L 371.078125 17.253906 Z M 361.414062 27.550781 L 363.742188 27.550781 L 363.742188 17.253906 L 361.414062 17.253906 Z M 369.558594 17.253906 C 369.566406 18.347656 369.363281 19.402344 368.949219 20.414062 C 368.539062 21.429688 367.945312 22.324219 367.179688 23.097656 L 370.398438 27.550781 L 367.519531 27.550781 L 364.023438 22.710938 L 364.925781 22.027344 C 365.671875 21.460938 366.253906 20.761719 366.667969 19.921875 C 367.082031 19.082031 367.285156 18.191406 367.28125 17.253906 Z M 369.558594 17.253906 " fill-opacity="1" fill-rule="nonzero"/><g clip-path="url(#4966ad7fa7)"><path fill="#5a31f4" d="M 432.5 5.265625 L 486.539062 5.265625 C 486.804688 5.265625 487.058594 5.316406 487.300781 5.417969 C 487.546875 5.519531 487.761719 5.664062 487.949219 5.847656 C 488.136719 6.035156 488.28125 6.25 488.382812 6.492188 C 488.480469 6.734375 488.53125 6.988281 488.53125 7.25 L 488.53125 38.496094 C 488.53125 38.761719 488.480469 39.015625 488.382812 39.257812 C 488.28125 39.5 488.136719 39.714844 487.949219 39.902344 C 487.761719 40.085938 487.546875 40.230469 487.300781 40.332031 C 487.058594 40.429688 486.804688 40.480469 486.539062 40.480469 L 432.5 40.480469 C 432.234375 40.480469 431.980469 40.429688 431.738281 40.332031 C 431.492188 40.230469 431.277344 40.085938 431.089844 39.902344 C 430.902344 39.714844 430.761719 39.5 430.660156 39.257812 C 430.558594 39.015625 430.507812 38.761719 430.507812 38.496094 L 430.507812 7.25 C 430.507812 6.988281 430.558594 6.734375 430.660156 6.492188 C 430.761719 6.25 430.902344 6.035156 431.089844 5.847656 C 431.277344 5.664062 431.492188 5.519531 431.738281 5.417969 C 431.980469 5.316406 432.234375 5.265625 432.5 5.265625 Z M 432.5 5.265625 " fill-opacity="1" fill-rule="nonzero"/></g><path fill="#ffffff" d="M 463.15625 19.320312 C 463.15625 21.875 461.359375 23.695312 458.847656 23.695312 L 456.484375 23.695312 C 456.429688 23.695312 456.382812 23.714844 456.34375 23.753906 C 456.304688 23.792969 456.285156 23.839844 456.285156 23.894531 L 456.285156 27.25 C 456.285156 27.378906 456.21875 27.445312 456.085938 27.445312 L 454.429688 27.445312 C 454.296875 27.445312 454.234375 27.382812 454.234375 27.25 L 454.234375 15.144531 C 454.234375 15.011719 454.296875 14.945312 454.429688 14.945312 L 458.859375 14.945312 C 461.359375 14.945312 463.15625 16.765625 463.15625 19.320312 Z M 461.09375 19.320312 C 461.09375 17.855469 460.089844 16.78125 458.726562 16.78125 L 456.484375 16.78125 C 456.351562 16.78125 456.285156 16.847656 456.285156 16.980469 L 456.285156 21.652344 C 456.285156 21.785156 456.351562 21.847656 456.484375 21.847656 L 458.726562 21.847656 C 460.089844 21.859375 461.09375 20.785156 461.09375 19.320312 Z M 463.648438 25.125 C 463.632812 24.726562 463.710938 24.347656 463.886719 23.992188 C 464.0625 23.632812 464.3125 23.339844 464.636719 23.109375 C 465.28125 22.625 466.292969 22.375 467.773438 22.320312 L 469.351562 22.265625 L 469.351562 21.800781 C 469.351562 20.875 468.726562 20.480469 467.722656 20.480469 C 466.71875 20.480469 466.078125 20.835938 465.933594 21.414062 C 465.90625 21.507812 465.84375 21.554688 465.742188 21.550781 L 464.183594 21.550781 C 464.121094 21.554688 464.070312 21.53125 464.03125 21.484375 C 463.992188 21.441406 463.976562 21.386719 463.984375 21.328125 C 464.21875 19.953125 465.363281 18.910156 467.792969 18.910156 C 470.375 18.910156 471.308594 20.105469 471.308594 22.394531 L 471.308594 27.25 C 471.308594 27.382812 471.242188 27.449219 471.109375 27.445312 L 469.535156 27.445312 C 469.480469 27.445312 469.433594 27.429688 469.394531 27.390625 C 469.355469 27.351562 469.335938 27.304688 469.335938 27.25 L 469.335938 26.886719 C 469.335938 26.820312 469.304688 26.773438 469.242188 26.746094 C 469.179688 26.722656 469.125 26.734375 469.078125 26.78125 C 468.609375 27.292969 467.847656 27.660156 466.625 27.660156 C 464.832031 27.660156 463.648438 26.734375 463.648438 25.125 Z M 469.351562 24.074219 L 469.351562 23.695312 L 467.308594 23.804688 C 466.230469 23.859375 465.605469 24.304688 465.605469 25.054688 C 465.605469 25.730469 466.179688 26.109375 467.183594 26.109375 C 468.546875 26.109375 469.351562 25.375 469.351562 24.074219 Z M 472.886719 31.117188 L 472.886719 29.707031 C 472.886719 29.644531 472.914062 29.59375 472.960938 29.554688 C 473.011719 29.515625 473.066406 29.5 473.128906 29.511719 C 473.371094 29.558594 473.613281 29.582031 473.859375 29.582031 C 474.292969 29.601562 474.6875 29.488281 475.042969 29.238281 C 475.398438 28.988281 475.636719 28.65625 475.761719 28.242188 L 475.863281 27.917969 C 475.878906 27.871094 475.878906 27.828125 475.863281 27.78125 L 472.585938 19.40625 C 472.574219 19.375 472.570312 19.34375 472.574219 19.308594 C 472.585938 19.191406 472.652344 19.132812 472.773438 19.132812 L 474.363281 19.132812 C 474.453125 19.132812 474.515625 19.175781 474.550781 19.261719 L 476.773438 25.167969 C 476.804688 25.257812 476.867188 25.304688 476.964844 25.304688 C 477.058594 25.304688 477.121094 25.257812 477.15625 25.167969 L 479.085938 19.277344 C 479.117188 19.183594 479.179688 19.140625 479.277344 19.140625 L 480.921875 19.140625 C 480.992188 19.140625 481.046875 19.167969 481.089844 19.226562 C 481.128906 19.285156 481.136719 19.347656 481.113281 19.414062 L 477.605469 28.714844 C 476.800781 30.878906 475.417969 31.433594 473.894531 31.433594 C 473.605469 31.4375 473.320312 31.40625 473.039062 31.328125 C 472.992188 31.316406 472.953125 31.292969 472.925781 31.25 C 472.894531 31.210938 472.882812 31.164062 472.886719 31.117188 Z M 443.59375 14.25 C 442.550781 14.242188 441.542969 14.425781 440.570312 14.804688 C 439.601562 15.179688 438.734375 15.722656 437.96875 16.433594 C 437.902344 16.496094 437.863281 16.570312 437.855469 16.660156 C 437.847656 16.753906 437.871094 16.835938 437.925781 16.910156 L 438.871094 18.191406 C 438.933594 18.28125 439.023438 18.332031 439.136719 18.339844 C 439.246094 18.351562 439.34375 18.316406 439.421875 18.234375 C 439.976562 17.683594 440.613281 17.261719 441.339844 16.964844 C 442.066406 16.671875 442.820312 16.527344 443.601562 16.535156 C 446.839844 16.535156 448.53125 18.960938 448.53125 21.359375 C 448.53125 23.960938 446.753906 25.796875 444.203125 25.832031 C 442.226562 25.832031 440.742188 24.527344 440.742188 22.808594 C 440.742188 22.367188 440.839844 21.949219 441.03125 21.554688 C 441.222656 21.15625 441.488281 20.820312 441.832031 20.542969 C 441.90625 20.480469 441.949219 20.398438 441.957031 20.304688 C 441.96875 20.207031 441.941406 20.121094 441.878906 20.046875 L 440.886719 18.800781 C 440.824219 18.71875 440.742188 18.675781 440.640625 18.664062 C 440.539062 18.652344 440.449219 18.679688 440.371094 18.746094 C 439.753906 19.242188 439.273438 19.84375 438.929688 20.558594 C 438.589844 21.269531 438.417969 22.019531 438.417969 22.808594 C 438.417969 25.769531 440.945312 28.09375 444.183594 28.113281 L 444.226562 28.113281 C 448.070312 28.0625 450.847656 25.226562 450.847656 21.351562 C 450.847656 17.910156 448.304688 14.25 443.59375 14.25 Z M 443.59375 14.25 " fill-opacity="1" fill-rule="nonzero"/></svg>